<mxfile host="app.diagrams.net" modified="2021-04-09T12:26:52.150Z" agent="5.0 (Windows NT 10.0; Win64; x64) AppleWebKit/537.36 (KHTML, like Gecko) Chrome/89.0.4389.114 Safari/537.36" etag="7DXF7YwHl0zFsy2EAwHY" version="14.5.8" type="github">
  <diagram id="HSZ-7mpD-AuvzDwhHtqm" name="Page-1">
    <mxGraphModel dx="1963" dy="667" grid="1" gridSize="10" guides="1" tooltips="1" connect="1" arrows="1" fold="1" page="1" pageScale="1" pageWidth="827" pageHeight="1169" math="0" shadow="0">
      <root>
        <mxCell id="0" />
        <mxCell id="1" parent="0" />
        <mxCell id="i-hNxlxcHy67pqhQU0XC-1" value="开始" style="rounded=1;whiteSpace=wrap;html=1;arcSize=50;" vertex="1" parent="1">
          <mxGeometry x="340" y="70" width="120" height="60" as="geometry" />
        </mxCell>
        <mxCell id="i-hNxlxcHy67pqhQU0XC-3" value="stm32上电并执行&lt;br&gt;初始化程序" style="rounded=0;whiteSpace=wrap;html=1;" vertex="1" parent="1">
          <mxGeometry x="770" y="190" width="120" height="60" as="geometry" />
        </mxCell>
        <mxCell id="i-hNxlxcHy67pqhQU0XC-8" value="" style="endArrow=classic;startArrow=classic;html=1;entryX=0.5;entryY=0;entryDx=0;entryDy=0;exitX=0.5;exitY=0;exitDx=0;exitDy=0;" edge="1" parent="1" source="i-hNxlxcHy67pqhQU0XC-10" target="i-hNxlxcHy67pqhQU0XC-3">
          <mxGeometry width="50" height="50" relative="1" as="geometry">
            <mxPoint x="220" y="200" as="sourcePoint" />
            <mxPoint x="580" y="200" as="targetPoint" />
            <Array as="points">
              <mxPoint y="160" />
              <mxPoint x="830" y="160" />
            </Array>
          </mxGeometry>
        </mxCell>
        <mxCell id="i-hNxlxcHy67pqhQU0XC-9" value="" style="endArrow=none;html=1;entryX=0.5;entryY=1;entryDx=0;entryDy=0;" edge="1" parent="1" target="i-hNxlxcHy67pqhQU0XC-1">
          <mxGeometry width="50" height="50" relative="1" as="geometry">
            <mxPoint x="400" y="160" as="sourcePoint" />
            <mxPoint x="400" y="90" as="targetPoint" />
          </mxGeometry>
        </mxCell>
        <mxCell id="i-hNxlxcHy67pqhQU0XC-10" value="工控机运行&lt;br&gt;python程序" style="rounded=0;whiteSpace=wrap;html=1;" vertex="1" parent="1">
          <mxGeometry x="-60" y="190" width="120" height="60" as="geometry" />
        </mxCell>
        <mxCell id="i-hNxlxcHy67pqhQU0XC-19" value="陀螺仪解算机器人&lt;br&gt;出发角度" style="rounded=0;whiteSpace=wrap;html=1;" vertex="1" parent="1">
          <mxGeometry x="770" y="270" width="120" height="60" as="geometry" />
        </mxCell>
        <mxCell id="i-hNxlxcHy67pqhQU0XC-22" value="" style="endArrow=classic;html=1;exitX=0.5;exitY=1;exitDx=0;exitDy=0;" edge="1" parent="1">
          <mxGeometry width="50" height="50" relative="1" as="geometry">
            <mxPoint x="-230" y="390" as="sourcePoint" />
            <mxPoint x="-230" y="450" as="targetPoint" />
          </mxGeometry>
        </mxCell>
        <mxCell id="i-hNxlxcHy67pqhQU0XC-23" value="识别摄像头采集画面&lt;br&gt;是否有附着物" style="rhombus;whiteSpace=wrap;html=1;" vertex="1" parent="1">
          <mxGeometry x="-310" y="450" width="160" height="80" as="geometry" />
        </mxCell>
        <mxCell id="i-hNxlxcHy67pqhQU0XC-24" value="" style="endArrow=classic;html=1;" edge="1" parent="1">
          <mxGeometry width="50" height="50" relative="1" as="geometry">
            <mxPoint x="-230" y="530" as="sourcePoint" />
            <mxPoint x="-230" y="570" as="targetPoint" />
          </mxGeometry>
        </mxCell>
        <mxCell id="i-hNxlxcHy67pqhQU0XC-25" value="" style="endArrow=classic;html=1;edgeStyle=orthogonalEdgeStyle;" edge="1" parent="1">
          <mxGeometry width="50" height="50" relative="1" as="geometry">
            <mxPoint x="-150" y="490" as="sourcePoint" />
            <mxPoint x="-230" y="420" as="targetPoint" />
            <Array as="points">
              <mxPoint x="-120" y="490" />
              <mxPoint x="-120" y="420" />
            </Array>
          </mxGeometry>
        </mxCell>
        <mxCell id="i-hNxlxcHy67pqhQU0XC-26" value="no" style="text;html=1;align=center;verticalAlign=middle;resizable=0;points=[];autosize=1;strokeColor=none;" vertex="1" parent="1">
          <mxGeometry x="-125" y="450" width="30" height="20" as="geometry" />
        </mxCell>
        <mxCell id="i-hNxlxcHy67pqhQU0XC-27" value="yes" style="text;html=1;align=center;verticalAlign=middle;resizable=0;points=[];autosize=1;strokeColor=none;" vertex="1" parent="1">
          <mxGeometry x="-230" y="540" width="30" height="20" as="geometry" />
        </mxCell>
        <mxCell id="i-hNxlxcHy67pqhQU0XC-28" value="识别附着物形状&lt;br&gt;并通过串口发送至stm32" style="rounded=0;whiteSpace=wrap;html=1;" vertex="1" parent="1">
          <mxGeometry x="-290" y="570" width="120" height="60" as="geometry" />
        </mxCell>
        <mxCell id="i-hNxlxcHy67pqhQU0XC-29" value="" style="endArrow=classic;html=1;edgeStyle=orthogonalEdgeStyle;entryX=0;entryY=0.5;entryDx=0;entryDy=0;exitX=0.5;exitY=1;exitDx=0;exitDy=0;" edge="1" parent="1" source="i-hNxlxcHy67pqhQU0XC-28" target="i-hNxlxcHy67pqhQU0XC-23">
          <mxGeometry width="50" height="50" relative="1" as="geometry">
            <mxPoint x="-90" y="630" as="sourcePoint" />
            <mxPoint x="-40" y="580" as="targetPoint" />
            <Array as="points">
              <mxPoint x="-230" y="660" />
              <mxPoint x="-330" y="660" />
              <mxPoint x="-330" y="490" />
            </Array>
          </mxGeometry>
        </mxCell>
        <mxCell id="i-hNxlxcHy67pqhQU0XC-30" value="" style="endArrow=classic;html=1;entryX=0.5;entryY=0;entryDx=0;entryDy=0;exitX=0.5;exitY=1;exitDx=0;exitDy=0;" edge="1" parent="1" source="i-hNxlxcHy67pqhQU0XC-10" target="i-hNxlxcHy67pqhQU0XC-31">
          <mxGeometry width="50" height="50" relative="1" as="geometry">
            <mxPoint y="250" as="sourcePoint" />
            <mxPoint y="310" as="targetPoint" />
          </mxGeometry>
        </mxCell>
        <mxCell id="i-hNxlxcHy67pqhQU0XC-31" value="采集摄像头画面" style="rounded=0;whiteSpace=wrap;html=1;" vertex="1" parent="1">
          <mxGeometry x="-60" y="270" width="120" height="60" as="geometry" />
        </mxCell>
        <mxCell id="i-hNxlxcHy67pqhQU0XC-32" value="辅助判断机器人位置" style="rounded=0;whiteSpace=wrap;html=1;" vertex="1" parent="1">
          <mxGeometry x="120" y="460" width="120" height="60" as="geometry" />
        </mxCell>
        <mxCell id="i-hNxlxcHy67pqhQU0XC-33" value="" style="endArrow=classic;html=1;entryX=0.5;entryY=0;entryDx=0;entryDy=0;exitX=0.5;exitY=1;exitDx=0;exitDy=0;" edge="1" parent="1" source="i-hNxlxcHy67pqhQU0XC-3" target="i-hNxlxcHy67pqhQU0XC-19">
          <mxGeometry width="50" height="50" relative="1" as="geometry">
            <mxPoint x="827" y="250" as="sourcePoint" />
            <mxPoint x="877" y="200" as="targetPoint" />
          </mxGeometry>
        </mxCell>
      </root>
    </mxGraphModel>
  </diagram>
</mxfile>
